<?xml version="1.0" encoding="utf-8"?>
<!-- Generator: Adobe Illustrator 16.0.0, SVG Export Plug-In . SVG Version: 6.00 Build 0)  -->
<!DOCTYPE svg PUBLIC "-//W3C//DTD SVG 1.1//EN" "http://www.w3.org/Graphics/SVG/1.1/DTD/svg11.dtd">
<svg version="1.1" id="Layer_1" xmlns="http://www.w3.org/2000/svg" xmlns:xlink="http://www.w3.org/1999/xlink" x="0px" y="0px"
	 width="363.012px" height="113.064px" viewBox="0 0 363.012 113.064" enable-background="new 0 0 363.012 113.064"
	 xml:space="preserve">
<linearGradient id="SVGID_1_" gradientUnits="userSpaceOnUse" x1="1.7822" y1="57.5325" x2="111.2832" y2="57.5325" gradientTransform="matrix(1 0 0 -1 0 114.0649)">
	<stop  offset="0" style="stop-color:#006838"/>
	<stop  offset="1" style="stop-color:#4A7C4A"/>
</linearGradient>
<path fill="url(#SVGID_1_)" stroke="#548C54" stroke-width="3.5636" stroke-miterlimit="10" d="M111.283,56.535
	c0-30.238-24.512-54.754-54.749-54.754c-30.241,0-54.752,24.516-54.752,54.754c0,30.235,24.512,54.748,54.752,54.748
	C86.771,111.283,111.283,86.771,111.283,56.535z"/>
<polygon fill="#6CC179" points="69.136,26.209 51.246,27.791 60.812,80.967 61.593,85.316 79.48,83.732 "/>
<polygon opacity="0.1" enable-background="new    " points="69.136,26.209 51.246,27.791 60.812,80.967 61.593,85.316 79.48,83.732 
	"/>
<g>
	<path fill="#000000" d="M137.25,86.193c-1.276,0.222-2.442,0.39-3.495,0.5c-1.053,0.111-2.079,0.166-3.076,0.166
		c-0.998,0-2.15-0.071-3.454-0.209c-1.304-0.139-2.757-0.346-4.366-0.623l18.633-59.395c1.441-0.164,2.787-0.303,4.035-0.414
		c1.247-0.111,2.508-0.168,3.784-0.168c1.054,0,2.206,0.057,3.454,0.168c1.247,0.111,2.674,0.25,4.283,0.414l18.383,59.479
		c-3.16,0.5-5.935,0.748-8.318,0.748c-1.109,0-2.219-0.055-3.328-0.166c-1.109-0.11-2.301-0.278-3.574-0.5l-3.162-11.561
		c-1.553,0.443-3.036,0.777-4.451,0.998c-1.414,0.223-2.814,0.33-4.2,0.33c-1.276,0-2.579-0.094-3.909-0.289
		c-1.332-0.193-2.719-0.484-4.16-0.875L137.25,86.193z M148.895,42.271l-5.572,21.381c0.941,0.277,1.828,0.498,2.66,0.666
		c0.832,0.164,1.692,0.248,2.579,0.248c0.942,0,1.871-0.067,2.786-0.209c0.916-0.139,1.872-0.346,2.869-0.623L148.895,42.271z"/>
	<path fill="#000000" d="M192.734,56.58c0,11.76,4.935,17.635,14.806,17.635c1.776,0,3.453-0.168,5.033-0.498
		c1.581-0.332,3.509-0.887,5.78-1.664c1.83,3.994,3.049,8.098,3.66,12.312c-1.609,0.61-3.104,1.108-4.49,1.495
		c-1.387,0.39-2.719,0.679-3.992,0.875c-1.276,0.193-2.538,0.33-3.784,0.412c-1.248,0.086-2.538,0.125-3.871,0.125
		c-4.714,0-8.856-0.762-12.435-2.284c-3.58-1.525-6.572-3.646-8.985-6.365c-2.412-2.715-4.229-5.961-5.447-9.732
		c-1.221-3.768-1.831-7.871-1.831-12.311c0-4.437,0.637-8.556,1.914-12.353c1.274-3.799,3.119-7.086,5.532-9.858
		c2.412-2.773,5.394-4.938,8.94-6.49c3.549-1.549,7.57-2.326,12.062-2.326c2.663,0,5.188,0.193,7.569,0.58
		c2.388,0.391,5.047,1.166,7.986,2.332c-0.111,2.271-0.527,4.477-1.246,6.611c-0.723,2.137-1.471,4.008-2.246,5.614
		c-1.108-0.387-2.121-0.719-3.035-0.998c-0.916-0.276-1.789-0.502-2.62-0.666c-0.834-0.168-1.664-0.291-2.498-0.373
		c-0.83-0.086-1.718-0.125-2.658-0.125c-4.494,0-7.976,1.515-10.442,4.533C193.965,46.086,192.734,50.59,192.734,56.58z"/>
	<path fill="#000000" d="M229.418,26.717c2.715-0.277,5.227-0.541,7.527-0.791c2.303-0.248,4.729-0.373,7.279-0.373
		c3.049,0,6.098,0.291,9.151,0.873c3.045,0.58,5.765,1.596,8.149,3.035c2.384,1.44,4.326,3.412,5.824,5.906
		c1.496,2.495,2.244,5.655,2.244,9.483c0,2.051-0.236,3.896-0.709,5.531c-0.469,1.639-1.08,3.092-1.828,4.365
		c-0.748,1.276-1.58,2.387-2.494,3.33c-0.916,0.944-1.819,1.746-2.705,2.412l12.978,25.62c-1.33,0.222-2.787,0.39-4.367,0.5
		c-1.582,0.107-3.01,0.164-4.282,0.164c-1.109,0-2.4-0.057-3.867-0.164c-1.471-0.11-2.762-0.278-3.871-0.5l-11.812-27.202
		l0.748-0.414c0.666-0.334,1.398-0.888,2.207-1.664c0.802-0.775,1.55-1.707,2.244-2.787c0.692-1.08,1.272-2.289,1.746-3.617
		c0.471-1.334,0.707-2.719,0.707-4.16c0-2.772-0.774-4.795-2.328-6.072c-1.553-1.276-3.467-1.914-5.739-1.914
		c-0.558,0-1.029,0.025-1.416,0.082c-0.388,0.058-0.638,0.111-0.748,0.168v47.582c-2.938,0.5-5.353,0.748-7.234,0.748
		c-2.053,0-4.521-0.248-7.404-0.748V26.717L229.418,26.717z"/>
	<path fill="#000000" d="M312.186,55.166c0,1.942-0.25,4.104-0.747,6.49h-16.058v11.811h20.883c0.498,2.33,0.748,4.438,0.748,6.322
		c0,2.053-0.25,4.242-0.748,6.571h-35.604v-59.81h35.104c0.222,1.221,0.39,2.355,0.5,3.41c0.107,1.053,0.164,2.051,0.164,2.994
		c0,1.828-0.221,4.021-0.664,6.571h-20.383v9.152h16.058C311.936,51.117,312.186,53.281,312.186,55.166z"/>
	<path fill="#000000" d="M347.792,49.842c2.326,0.945,4.422,1.9,6.279,2.871c1.856,0.969,3.448,2.135,4.782,3.494
		c1.328,1.356,2.357,2.992,3.076,4.905c0.722,1.914,1.082,4.229,1.082,6.947c0,2.941-0.516,5.586-1.539,7.943
		c-1.026,2.356-2.537,4.383-4.532,6.074c-1.996,1.688-4.451,2.991-7.363,3.907c-2.912,0.914-6.254,1.373-10.021,1.373
		c-3.44,0-6.477-0.278-9.108-0.834c-2.633-0.551-5.478-1.412-8.525-2.575c0.219-1.941,0.607-4.007,1.164-6.199
		c0.553-2.189,1.219-4.422,1.996-6.695c5.102,2.219,9.537,3.328,13.309,3.328c2.83,0,5.033-0.43,6.615-1.291
		c1.578-0.859,2.369-2.344,2.369-4.451c0-0.887-0.168-1.646-0.498-2.287c-0.336-0.637-0.779-1.176-1.334-1.623
		c-0.555-0.44-1.178-0.815-1.871-1.121c-0.691-0.303-1.4-0.596-2.119-0.873l-4.658-1.748c-1.995-0.719-3.813-1.577-5.448-2.579
		c-1.638-0.998-3.037-2.173-4.199-3.535c-1.166-1.355-2.068-2.922-2.705-4.697s-0.955-3.854-0.955-6.24
		c0-2.938,0.498-5.545,1.496-7.819c0.998-2.273,2.396-4.201,4.199-5.779c1.803-1.58,3.979-2.775,6.533-3.578
		c2.547-0.803,5.405-1.205,8.565-1.205c2.826,0,5.56,0.279,8.195,0.83c2.631,0.555,5.445,1.359,8.44,2.412
		c-0.223,1.777-0.623,3.729-1.207,5.863c-0.582,2.137-1.315,4.146-2.202,6.032c-1.443-0.608-3.136-1.246-5.074-1.914
		c-1.943-0.666-4.354-0.995-7.238-0.995c-0.887,0-1.734,0.082-2.539,0.248c-0.803,0.163-1.521,0.43-2.16,0.788
		c-0.639,0.361-1.151,0.863-1.539,1.5c-0.391,0.638-0.584,1.429-0.584,2.369c0,1.609,0.529,2.802,1.582,3.578
		c1.056,0.779,2.301,1.441,3.742,1.996L347.792,49.842z"/>
</g>
<polygon fill="#6CC179" points="34.152,32.498 16.492,34.045 26.835,91.568 44.5,90.025 "/>
<polygon fill="#6CC179" points="51.246,27.791 34.152,32.498 44.5,90.025 61.593,85.316 "/>
<polygon fill="#6CC179" points="86.229,21.498 69.136,26.209 79.48,83.732 96.573,79.023 "/>
<polygon fill="#569B58" points="82.005,26.748 69.918,30.555 52.03,32.137 34.934,36.848 22.052,37.531 30.833,86.361 
	43.718,85.678 60.812,80.967 78.702,79.385 90.789,75.578 "/>
<polygon fill="#4C894D" points="53.829,33.814 52.378,34.078 35.282,38.785 24.134,39.156 28.736,64.768 39.891,64.393 
	56.984,59.686 58.438,59.424 "/>
<polygon fill="#5FA365" points="85.606,56.064 75.137,59.58 59.754,60.713 63.063,79.117 78.45,77.984 88.915,74.469 "/>
<polygon fill="#71BC72" points="44.06,64.701 40.157,65.871 29.005,66.244 32.314,84.648 43.466,84.277 47.365,83.107 "/>
<polygon fill="#447247" points="58.701,60.904 57.25,61.164 45.412,64.227 48.721,82.629 60.562,79.566 62.013,79.307 "/>
<polygon fill="#6AAD6A" points="66.54,32.928 55.109,33.586 57.411,46.391 68.844,45.734 "/>
<polygon fill="#447247" points="80.055,29.098 70.266,32.492 67.735,32.948 70.039,45.754 72.609,45.523 82.356,41.904 "/>
<polygon fill="#4E8251" points="82.573,43.096 72.78,46.49 57.627,47.582 59.715,59.193 74.872,58.1 84.661,54.705 "/>
<polygon opacity="0.1" enable-background="new    " points="34.152,32.498 16.492,34.045 26.835,91.568 44.5,90.025 "/>
</svg>
